<?xml version="1.0" encoding="utf-8"?>
<!-- Generator: Adobe Illustrator 23.0.2, SVG Export Plug-In . SVG Version: 6.00 Build 0)  -->
<svg version="1.1" id="Layer_1" xmlns="http://www.w3.org/2000/svg" xmlns:xlink="http://www.w3.org/1999/xlink" x="0px" y="0px"
	 viewBox="0 0 287.3877 216.3085" enable-background="new 0 0 287.3877 216.3085" xml:space="preserve">
<g>
	<path d="M28.999,142.2226V50.8183c0-5.5234-4.4775-10-10-10H10c-5.5225,0-10,4.4766-10,10v155.4902c0,5.5235,4.4775,10,10,10h8.999
		c5.5225,0,10-4.4765,10-10v-24.0859h80.7217v-40H28.999z"/>
	<path d="M280.7217,145.1376v37.085v9.334c0,5.5234-4.4776,10-10,10h-12.3321v4.7519c0,5.5235,4.4766,10,10,10h8.9981
		c5.5234,0,10-4.4765,10-10v-24.0859v-27.666v-12.334h-6.666V145.1376z"/>
	<path d="M66.085,73.1464C53.9853,70.33,41.8916,77.8554,39.0752,89.955c-2.8184,12.0996,4.707,24.1934,16.8066,27.0117
		c12.0996,2.8164,24.1934-4.709,27.0098-16.8086C85.71,88.0585,78.1846,75.9667,66.085,73.1464z"/>
	<path d="M93.4932,120.0917c-3.7715-2.3008-4.9649-7.2226-2.6641-10.9941c2.3027-3.7735,7.2227-4.9649,10.9961-2.6621l0.0098,0.0058
		c0.3603,0.2403,3.4062,1.92,7.8857,3.4414v-11.039c-0.9043-0.1817-1.7891-0.3594-2.6494-0.5274
		c-9.9512-2.8711-21.8633,0.8828-23.9922,9.42c-2.127,8.5371,2.5078,20.9121,17.1504,25.9453
		c3.3359,1.1259,6.4678,2.0908,9.4912,2.9306v-10.0449C100.1602,124.1786,93.9512,120.3212,93.4932,120.0917z"/>
	<path d="M278.7227,191.5566v-9.334v-37.5664v-2.4336v-49.666c0-4.4121-3.5899-8-8.002-8h-151c-4.4121,0-8,3.5879-8,8v6.6924
		v11.2685c3.6523,1.083,8.0088,1.9512,12.5771,1.9199c7.2061-0.0761,14.7393-1.8388,22.292-8.2627
		c1.1065-0.9414,2.2129-1.9795,3.3194-3.1298c3.0449-3.2012,8.1054-3.3321,11.3105-0.2872
		c0.8506,0.8086,1.4776,1.7608,1.8926,2.7823c1.1484,2.8213,0.6309,6.1758-1.6055,8.5263
		c-11.5097,12.2286-25.3125,16.3731-36.8535,16.3731c-0.1191,0-0.2363,0-0.3555-0.002c-4.5634-0.0254-8.7959-0.5869-12.5771-1.4052
		v10.1211v5.0693v40v9.334c0,4.4121,3.5879,8,8,8h138.6689h12.3311C275.1328,199.5566,278.7227,195.9687,278.7227,191.5566z"/>
	<path d="M124.3096,126.4413l-0.0118-0.0039h0.3555c7.6856,0,22.5039-2.0429,35.4004-15.7402
		c1.8916-1.9922,2.126-4.9336,0.7988-7.1836c-0.2763-0.4668-0.5947-0.915-1.0078-1.3066c-1.123-1.0645-2.5898-1.6504-4.1347-1.6504
		c-1.6622,0-3.2051,0.6621-4.3536,1.8672c-0.5937,0.6181-1.1943,1.2021-1.7988,1.7705
		c-7.2978,6.8642-15.373,10.1347-25.2363,10.2431l-0.2559,0.0039c-4.498,0-8.7392-0.7978-12.3447-1.8271
		c-0.6914-0.1973-1.3584-0.4024-2-0.6123c-5.4004-1.7715-8.9453-3.8633-8.999-3.9004c-0.8828-0.5352-1.961-0.8418-3.0586-0.8418
		c-2.1113,0-4.0274,1.0762-5.127,2.8789c-1.7168,2.8145-0.832,6.5039,1.9746,8.2305c0.0645,0.0351,0.1485,0.084,0.25,0.1406
		c2.5743,1.4697,7.877,4.1562,14.96,5.9922c0.6504,0.1689,1.3203,0.3281,2,0.4805
		C115.5156,125.8349,119.751,126.4159,124.3096,126.4413z"/>
	<path d="M137.4463,22.0292c1.3496-0.8613,3.5722-2.3242,4.9355-3.2519l9.1787-6.25c1.3643-0.9297,2.7959-2.8848,3.1817-4.3438
		c0.3857-1.4609-0.6026-3.0019-2.1983-3.4238l-17.6347-4.6602c-1.5938-0.4218-3.2442,0.5371-3.666,2.1329l-0.1114,0.4179
		c-0.4218,1.5957,0.541,3.2383,2.1387,3.6524l7.1191,1.8398c1.4278,0.3594,2.584,0.627,3.4707,0.8047
		c-1.0585,0.6152-2.4902,1.5644-2.4902,1.5644c-1.375,0.9102-3.6191,2.4141-4.9844,3.3399l-8.8828,6.0215
		c-1.3652,0.9258-2.8281,2.9902-3.249,4.584l-0.0117,0.0449c-0.4209,1.5957,0.5381,3.2461,2.1338,3.668l19.5019,5.1542
		c1.5957,0.4219,3.2461-0.539,3.668-2.1328l0.209-0.7929c0.4219-1.5957-0.5391-3.2442-2.1338-3.666l-8.71-2.3028
		c-0.498-0.1328-0.9824-0.2324-0.9824-0.2324C136.3135,23.8652,136.0967,22.8886,137.4463,22.0292z"/>
	<path d="M116.5088,49.4824c1.2578-0.5079,3.334-1.3829,4.6133-1.9454l8.6132-3.7832c1.2803-0.5625,2.7754-1.9687,3.3223-3.125
		c0.5488-1.1562-0.0371-2.5937-1.3008-3.1914l-13.9648-6.6152c-1.2617-0.5977-2.7852-0.0527-3.3848,1.209l-0.1562,0.332
		c-0.5977,1.2637-0.0508,2.7813,1.2148,3.3731l5.6445,2.6367c1.1348,0.5195,2.0547,0.9199,2.7657,1.2051
		c-0.9766,0.3496-2.3164,0.9179-2.3164,0.9179c-1.2852,0.5449-3.3868,1.4492-4.668,2.0098l-8.3301,3.6406
		c-1.2812,0.5586-2.8183,2.0508-3.418,3.3145l-0.0156,0.0351c-0.5996,1.2637-0.0547,2.7852,1.209,3.3848l15.4434,7.3144
		c1.2636,0.5977,2.7871,0.0547,3.3867-1.2089l0.2949-0.627c0.5996-1.2637,0.0557-2.7871-1.207-3.3848l-6.8985-3.2675
		c-0.3945-0.1856-0.7812-0.3438-0.7812-0.3438C115.2803,50.8339,115.251,49.9882,116.5088,49.4824z"/>
	<path d="M92.3789,65.8554c1.0088-0.1504,2.6816-0.4258,3.7148-0.6133l6.962-1.2519c1.0351-0.1856,2.375-0.9512,2.9795-1.7012
		c0.6025-0.75,0.4277-1.9024-0.3907-2.5606l-9.0498-7.289c-0.8164-0.6602-2.0263-0.5293-2.6855,0.289l-0.1739,0.2149
		c-0.6582,0.8164-0.5253,2.0234,0.2969,2.6797l3.6631,2.9179c0.7373,0.5801,1.3408,1.0352,1.8106,1.3672
		c-0.7745,0.084-1.8555,0.2637-1.8555,0.2637c-1.0361,0.1738-2.7315,0.4648-3.7656,0.6504l-6.7305,1.1973
		c-1.0342,0.1855-2.4209,1.0058-3.0811,1.8242l-0.0175,0.0215c-0.6592,0.8203-0.5293,2.0293,0.288,2.6875l10.0088,8.0605
		c0.8184,0.6602,2.0274,0.5313,2.6866-0.2891l0.3271-0.4042c0.6602-0.8204,0.5293-2.0293-0.2891-2.6895l-4.4687-3.5996
		c-0.2559-0.207-0.5117-0.3887-0.5117-0.3887C91.2432,66.6288,91.3701,66.0038,92.3789,65.8554z"/>
	<path d="M43.2197,119.9941c-4.8066,0-8.7041,3.8965-8.7041,8.7031v2.3223c0,4.8086,3.8975,8.7031,8.7041,8.7031h31.335
		c4.8076,0,8.7041-3.8945,8.7041-8.7031v-2.3223c0-4.8066-3.8965-8.7031-8.7041-8.7031H43.2197z"/>
</g>
</svg>
